<?xml version="1.0" encoding="utf-8"?>
<!-- Generator: Adobe Illustrator 26.1.0, SVG Export Plug-In . SVG Version: 6.00 Build 0)  -->
<svg version="1.1" id="Capa_1" xmlns="http://www.w3.org/2000/svg" xmlns:xlink="http://www.w3.org/1999/xlink" x="0px" y="0px"
	 viewBox="0 0 300.92 85.04" style="enable-background:new 0 0 300.92 85.04;" xml:space="preserve">
<style type="text/css">
	.st0{fill:#415364;}
</style>
<g>
	<path class="st0" d="M8.04,58.01C2.86,58.01,0,60.98,0,66.38v8.71c0,6.97,2.4,9.95,8.04,9.95c2.93,0,5.42-0.59,7.82-1.86v-11.6
		h-5.17v2.34h2.39v7.58l-0.12,0.09c-0.81,0.6-2.53,1.23-4.92,1.23c-3.73,0-5.19-2.12-5.19-7.58v-8.97c0-5.45,3.63-6.03,5.19-6.03
		c3.31,0,4.91,1.53,5,4.81h2.94c0.05-2.32-0.45-4.01-1.53-5.13C13.21,58.63,11.11,58.01,8.04,58.01"/>
	<path class="st0" d="M59.01,85.04c5.64,0,8.04-2.98,8.04-9.95V58.56h-2.78v16.67c0,5.46-1.48,7.58-5.26,7.58
		c-3.79,0-5.26-2.12-5.26-7.58V58.56h-2.78v16.53C50.97,82.06,53.38,85.04,59.01,85.04"/>
	<path class="st0" d="M80.67,70.46V60.9h4.97c0.16,0,4.05,0.05,4.05,4.75c0,4.35-3.5,4.82-5,4.82H80.67z M92.54,65.83
		c0-4.89-2.32-7.27-7.09-7.27H77.9v25.93h2.78V72.8h4.75C86.61,72.8,92.54,72.46,92.54,65.83"/>
	<path class="st0" d="M114.27,75.23c0,5.45-1.46,7.58-5.19,7.58c-3.73,0-5.19-2.12-5.19-7.58v-8.97c0-5.45,3.63-6.03,5.19-6.03
		c1.56,0,5.19,0.58,5.19,6.03V75.23z M109.08,58.01c-5.19,0-8.04,2.97-8.04,8.37v8.71c0,6.97,2.4,9.95,8.04,9.95
		c5.63,0,8.04-2.98,8.04-9.95v-8.71C117.12,60.98,114.27,58.01,109.08,58.01"/>
	<path class="st0" d="M152.07,19.22V65.3h7.15c6.72,0,10.75-2.51,10.75-12.11V32.36c0-9.61-4.03-13.15-10.75-13.15H152.07z
		 M130.95,0h28.66c21.12,0,31.49,8.41,31.49,29.93V54.8c0,21.52-10.37,29.71-31.49,29.71h-28.66V0z"/>
	<polygon class="st0" points="245.24,84.51 259.84,26.58 259.84,84.51 	"/>
	<rect x="279.8" class="st0" width="21.12" height="84.51"/>
	<polygon class="st0" points="221.16,0 235.55,58.66 249.95,0 	"/>
	<polygon class="st0" points="225.85,84.51 211.26,26.58 211.26,84.51 	"/>
	<path class="st0" d="M29.42,70.46V60.9h4.97c0.16,0,4.05,0.05,4.05,4.75c0,4.35-3.5,4.82-5.01,4.82H29.42z M38.67,84.49h2.73
		l-4.72-12.07l0.3-0.1c1.96-0.66,4.31-2.33,4.31-6.49c0-4.89-2.32-7.27-7.08-7.27h-7.56v25.93h2.78V72.8h4.68L38.67,84.49z"/>
</g>
</svg>
